<?xml version="1.0" standalone="no"?>
<!DOCTYPE svg PUBLIC "-//W3C//DTD SVG 20010904//EN"
 "http://www.w3.org/TR/2001/REC-SVG-20010904/DTD/svg10.dtd">
<svg version="1.0" xmlns="http://www.w3.org/2000/svg"
 width="225.000000pt" height="225.000000pt" viewBox="0 0 225.000000 225.000000"
 preserveAspectRatio="xMidYMid meet">
<metadata>
Created by potrace 1.14, written by Peter Selinger 2001-2017
</metadata>
<g transform="translate(0.000000,225.000000) scale(0.100000,-0.100000)"
fill="#000000" stroke="none">
<path d="M814 1791 c-169 -12 -265 -65 -319 -176 -32 -65 -44 -175 -45 -405 0
-283 22 -374 110 -454 74 -66 117 -80 268 -84 l133 -4 -3 109 -3 108 -112 5
c-107 5 -114 6 -140 33 l-28 27 0 273 c0 296 2 307 57 339 33 19 753 19 786 0
53 -30 57 -49 60 -286 5 -274 0 -320 -38 -358 -28 -27 -32 -28 -137 -29 l-108
0 -165 -107 -165 -108 -3 -107 c-1 -59 0 -107 2 -107 3 0 76 46 163 102 l158
103 135 5 c121 5 141 8 192 33 62 30 116 84 149 148 30 60 42 214 36 464 -5
179 -9 219 -26 265 -38 102 -111 167 -219 196 -67 17 -554 28 -738 15z"/>
<path d="M817 1293 c-4 -3 -7 -46 -7 -94 0 -103 -1 -101 115 -140 60 -21 89
-24 205 -24 123 1 142 3 210 29 41 16 81 33 88 38 8 7 12 40 12 100 0 71 -3
90 -16 95 -8 3 -57 -7 -107 -23 -126 -39 -264 -39 -382 -1 -83 28 -107 32
-118 20z"/>
</g>
</svg>
